<?xml version="1.0" encoding="UTF-8"?>
<svg version="1.1" xmlns="http://www.w3.org/2000/svg" width="1024" height="1024"><path d="M0 0 C19.86060393 16.65925675 33.32175201 40.79401207 36.50805664 66.65209961 C37.86192369 94.52363815 32.78151565 116.10678925 17.89501953 139.84570312 C17.44727676 140.56025162 16.999534 141.27480011 16.53822327 142.01100159 C16.19826828 142.55256393 15.85831329 143.09412628 15.50805664 143.65209961 C16.08355255 144.22537491 16.65904846 144.79865021 17.25198364 145.38929749 C22.69762866 150.81483462 28.14081038 156.24282593 33.58130074 161.67353153 C36.37781768 164.46484881 39.17524915 167.25523609 41.97485352 170.04345703 C44.68087633 172.73854671 47.38438826 175.43613247 50.08623886 178.13540459 C51.11309205 179.16042221 52.14081913 180.1845652 53.16946793 181.20778084 C58.50633338 186.5175978 63.68206994 191.86839551 68.50805664 197.65209961 C69.39493164 198.53897461 70.28180664 199.42584961 71.19555664 200.33959961 C71.95868164 201.10272461 72.72180664 201.86584961 73.50805664 202.65209961 C74.10618164 203.22959961 74.70430664 203.80709961 75.32055664 204.40209961 C77.24547482 208.04931301 77.01963373 211.62255405 76.50805664 215.65209961 C74.81641606 220.37088649 72.64757046 222.85792778 68.50805664 225.65209961 C64.0030283 227.15377572 59.85574884 227.82132427 55.52368164 225.66381836 C51.66503474 222.92417906 48.54365655 219.66238518 45.42919922 216.11767578 C40.35787602 210.43433315 35.06476589 204.99026139 29.70727539 199.57788086 C28.96589797 198.82851792 28.96589797 198.82851792 28.20954323 198.06401634 C25.60798011 195.43605453 23.00298005 192.81155114 20.39550781 190.18945312 C18.24621819 188.02668473 16.10449314 185.85680944 13.96875 183.68066406 C11.36932538 181.03211676 8.75801807 178.39587458 6.13749123 175.76820946 C5.14564902 174.76964778 4.15807202 173.76683069 3.17490196 172.75972939 C1.80901076 171.36242064 0.42589153 169.98201473 -0.95800781 168.60253906 C-1.73916458 167.81329544 -2.52032135 167.02405182 -3.32514954 166.21089172 C-5.3380777 164.40908698 -5.3380777 164.40908698 -7.62638855 164.81877136 C-10.11027199 165.92830201 -12.32025616 167.31795076 -14.61694336 168.77709961 C-38.03234447 182.62124187 -66.82206165 187.05604576 -93.34545898 180.4909668 C-108.95560155 176.20796111 -123.08639086 169.10003833 -135.49194336 158.65209961 C-136.67530273 157.68723633 -136.67530273 157.68723633 -137.88256836 156.70288086 C-158.17083672 139.44509283 -169.90687765 115.00309197 -172.49194336 88.65209961 C-174.44761845 62.32701227 -167.20049897 34.41655187 -149.78100586 14.11694336 C-141.96562308 5.7014032 -134.33890951 -2.27995713 -124.49194336 -8.34790039 C-123.14422852 -9.21995117 -123.14422852 -9.21995117 -121.76928711 -10.10961914 C-83.31498419 -33.96888381 -34.38501207 -27.96891028 0 0 Z " fill="#FDFDFC" transform="translate(575.491943359375,355.347900390625)"/>
<path d="M0 0 C19.86060393 16.65925675 33.32175201 40.79401207 36.50805664 66.65209961 C37.86192369 94.52363815 32.78151565 116.10678925 17.89501953 139.84570312 C17.44727676 140.56025162 16.999534 141.27480011 16.53822327 142.01100159 C16.19826828 142.55256393 15.85831329 143.09412628 15.50805664 143.65209961 C16.08355255 144.22537491 16.65904846 144.79865021 17.25198364 145.38929749 C22.69762866 150.81483462 28.14081038 156.24282593 33.58130074 161.67353153 C36.37781768 164.46484881 39.17524915 167.25523609 41.97485352 170.04345703 C44.68087633 172.73854671 47.38438826 175.43613247 50.08623886 178.13540459 C51.11309205 179.16042221 52.14081913 180.1845652 53.16946793 181.20778084 C58.50633338 186.5175978 63.68206994 191.86839551 68.50805664 197.65209961 C69.39493164 198.53897461 70.28180664 199.42584961 71.19555664 200.33959961 C71.95868164 201.10272461 72.72180664 201.86584961 73.50805664 202.65209961 C74.10618164 203.22959961 74.70430664 203.80709961 75.32055664 204.40209961 C77.24547482 208.04931301 77.01963373 211.62255405 76.50805664 215.65209961 C74.81641606 220.37088649 72.64757046 222.85792778 68.50805664 225.65209961 C64.0030283 227.15377572 59.85574884 227.82132427 55.52368164 225.66381836 C51.66503474 222.92417906 48.54365655 219.66238518 45.42919922 216.11767578 C40.35787602 210.43433315 35.06476589 204.99026139 29.70727539 199.57788086 C28.96589797 198.82851792 28.96589797 198.82851792 28.20954323 198.06401634 C25.60798011 195.43605453 23.00298005 192.81155114 20.39550781 190.18945312 C18.24621819 188.02668473 16.10449314 185.85680944 13.96875 183.68066406 C11.36932538 181.03211676 8.75801807 178.39587458 6.13749123 175.76820946 C5.14564902 174.76964778 4.15807202 173.76683069 3.17490196 172.75972939 C1.80901076 171.36242064 0.42589153 169.98201473 -0.95800781 168.60253906 C-1.73916458 167.81329544 -2.52032135 167.02405182 -3.32514954 166.21089172 C-5.3380777 164.40908698 -5.3380777 164.40908698 -7.62638855 164.81877136 C-10.11027199 165.92830201 -12.32025616 167.31795076 -14.61694336 168.77709961 C-38.03234447 182.62124187 -66.82206165 187.05604576 -93.34545898 180.4909668 C-108.95560155 176.20796111 -123.08639086 169.10003833 -135.49194336 158.65209961 C-136.67530273 157.68723633 -136.67530273 157.68723633 -137.88256836 156.70288086 C-158.17083672 139.44509283 -169.90687765 115.00309197 -172.49194336 88.65209961 C-174.44761845 62.32701227 -167.20049897 34.41655187 -149.78100586 14.11694336 C-141.96562308 5.7014032 -134.33890951 -2.27995713 -124.49194336 -8.34790039 C-123.14422852 -9.21995117 -123.14422852 -9.21995117 -121.76928711 -10.10961914 C-83.31498419 -33.96888381 -34.38501207 -27.96891028 0 0 Z M-121.49194336 12.65209961 C-122.33112305 13.32885742 -123.17030273 14.00561523 -124.03491211 14.70288086 C-142.5946239 30.44266745 -151.31903022 50.75005507 -153.49194336 74.65209961 C-141.28194336 74.65209961 -129.07194336 74.65209961 -116.49194336 74.65209961 C-112.29907282 65.85865151 -112.29907282 65.85865151 -108.11547852 57.06079102 C-107.59260254 55.96943848 -107.06972656 54.87808594 -106.53100586 53.75366211 C-105.99685059 52.6329834 -105.46269531 51.51230469 -104.91235352 50.35766602 C-103.49194336 47.65209961 -103.49194336 47.65209961 -101.49194336 45.65209961 C-98.15860138 45.21731587 -96.27880187 45.0582069 -93.54467773 47.12182617 C-90.70970272 50.61631726 -89.21579737 54.36714164 -87.52319336 58.51147461 C-87.16100708 59.37468323 -86.7988208 60.23789185 -86.42565918 61.1272583 C-85.27178869 63.88176511 -84.13132366 66.64157145 -82.99194336 69.40209961 C-81.85013677 72.14726335 -80.70551725 74.89121764 -79.55822754 77.63409424 C-78.8465651 79.3377386 -78.13841863 81.04285762 -77.43444824 82.74969482 C-75.32144043 87.83498989 -73.00692053 92.75252034 -70.49194336 97.65209961 C-68.30668785 94.92986634 -66.83377234 92.41820457 -65.57836914 89.16577148 C-65.23436066 88.28385132 -64.89035217 87.40193115 -64.53591919 86.49328613 C-63.99208084 85.07143005 -63.99208084 85.07143005 -63.43725586 83.62084961 C-63.05383026 82.63395142 -62.67040466 81.64705322 -62.27536011 80.63024902 C-61.04998897 77.47311378 -59.83314441 74.31277735 -58.61694336 71.15209961 C-55.90966849 64.14974344 -53.19660194 57.14964811 -50.46813965 50.15551758 C-49.86231246 48.60189697 -49.25808336 47.04765095 -48.65637207 45.49243164 C-47.98378502 43.76055587 -47.29726834 42.03410562 -46.60913086 40.30834961 C-46.26221191 39.42985352 -45.91529297 38.55135742 -45.55786133 37.64624023 C-44.49194336 35.65209961 -44.49194336 35.65209961 -41.49194336 33.65209961 C-38.38337336 33.41895686 -36.47780567 33.65681217 -33.49194336 34.65209961 C-32.73953516 36.62144629 -32.10129327 38.63389815 -31.49194336 40.65209961 C-30.00313994 44.4652445 -28.42919194 48.24352882 -26.86694336 52.02709961 C-26.44670898 53.04932617 -26.02647461 54.07155273 -25.59350586 55.12475586 C-24.56141873 57.63460411 -23.5275147 60.14368742 -22.49194336 62.65209961 C-23.40202148 62.76424805 -24.31209961 62.87639648 -25.24975586 62.99194336 C-28.39666128 63.6326988 -29.88568072 64.27921475 -32.36694336 66.21459961 C-33.39819336 67.01897461 -34.42944336 67.82334961 -35.49194336 68.65209961 C-35.59506836 67.90959961 -35.69819336 67.16709961 -35.80444336 66.40209961 C-36.53968152 63.46114698 -37.62772131 61.99112352 -39.49194336 59.65209961 C-42.24995054 66.5343294 -45.0065452 73.41712376 -47.76220703 80.30029297 C-48.69776226 82.63668302 -49.63362833 84.97294862 -50.56982422 87.30908203 C-51.47928548 89.57861228 -52.38831844 91.84831422 -53.29690552 94.11819458 C-54.17959349 96.32324577 -55.06326928 98.52790181 -55.94796753 100.73214722 C-58.57280646 107.28859098 -61.11235346 113.86177561 -63.46777344 120.52050781 C-64.49194336 122.65209961 -64.49194336 122.65209961 -67.49194336 124.65209961 C-70.42944336 124.65209961 -70.42944336 124.65209961 -73.49194336 123.65209961 C-76.97508411 119.15608447 -79.0931849 114.30653998 -81.24194336 109.07006836 C-81.58193359 108.2564534 -81.92192383 107.44283844 -82.2722168 106.60456848 C-83.35143225 104.01868489 -84.42196738 101.42931809 -85.49194336 98.83959961 C-86.56375829 96.26139135 -87.63736428 93.68393706 -88.71166992 91.10676575 C-89.37693391 89.50913705 -90.04047059 87.91078749 -90.7019043 86.31156921 C-92.88196531 81.05346594 -95.15794075 75.8436548 -97.49194336 70.65209961 C-98.15194336 70.65209961 -98.81194336 70.65209961 -99.49194336 70.65209961 C-99.83974854 71.41671509 -99.83974854 71.41671509 -100.19458008 72.19677734 C-101.24551181 74.49743025 -102.30608037 76.79351034 -103.36694336 79.08959961 C-103.73174805 79.89204102 -104.09655273 80.69448242 -104.47241211 81.52124023 C-104.8269043 82.28500977 -105.18139648 83.0487793 -105.54663086 83.83569336 C-105.87131348 84.54266357 -106.19599609 85.24963379 -106.53051758 85.97802734 C-107.49194336 87.65209961 -107.49194336 87.65209961 -109.49194336 88.65209961 C-110.88012009 88.7693662 -112.2734305 88.82891367 -113.66625977 88.85742188 C-114.52700104 88.8773671 -115.38774231 88.89731232 -116.27456665 88.91786194 C-117.20481659 88.93457443 -118.13506653 88.95128693 -119.09350586 88.96850586 C-120.52090591 88.99967751 -120.52090591 88.99967751 -121.97714233 89.03147888 C-125.02366768 89.09698094 -128.07028079 89.15586241 -131.11694336 89.21459961 C-133.17945252 89.2577842 -135.24195273 89.30139847 -137.30444336 89.34545898 C-142.3668529 89.45266301 -147.42935091 89.55392862 -152.49194336 89.65209961 C-152.35895678 91.22110681 -152.21898085 92.78952233 -152.07617188 94.35766602 C-151.99899429 95.23113678 -151.92181671 96.10460754 -151.84230042 97.00454712 C-151.28355752 101.22681445 -149.93733157 105.06033958 -148.42944336 109.02709961 C-148.1192627 109.85072998 -147.80908203 110.67436035 -147.48950195 111.52294922 C-143.02265008 122.90639674 -136.03406822 131.94740836 -127.49194336 140.65209961 C-126.82936523 141.33916992 -126.16678711 142.02624023 -125.48413086 142.73413086 C-107.99143463 159.59496164 -85.55696611 164.18630798 -62.08569336 163.93334961 C-54.04803291 163.70474721 -47.0803239 162.3180519 -39.49194336 159.65209961 C-38.42073242 159.27827148 -37.34952148 158.90444336 -36.24584961 158.51928711 C-24.70014643 154.07750066 -15.26953299 147.2871959 -6.49194336 138.65209961 C-5.71850586 137.89155273 -4.94506836 137.13100586 -4.14819336 136.34741211 C8.17015292 123.4806463 15.76943501 106.35806237 17.50805664 88.65209961 C12.22805664 88.32209961 6.94805664 87.99209961 1.50805664 87.65209961 C1.83357747 85.43855794 2.15909831 83.22501628 2.48461914 81.01147461 C2.69132658 78.2585126 2.69132658 78.2585126 0.50805664 74.65209961 C5.78805664 74.65209961 11.06805664 74.65209961 16.50805664 74.65209961 C17.53708809 53.55695498 8.05828778 35.64357225 -5.71459961 20.15209961 C-22.23805011 2.90010191 -45.04344485 -5.96695161 -68.67944336 -6.72290039 C-88.00272113 -6.38494183 -106.61793833 0.32263666 -121.49194336 12.65209961 Z " fill="#2A3471" transform="translate(575.491943359375,355.347900390625)"/>
<path d="M0 0 C3.00533148 0.01074117 6.01006711 0.00002766 9.01538086 -0.01269531 C24.56314022 -0.02532271 39.25533313 1.48762981 54.50561523 4.63574219 C55.58351318 4.85633301 56.66141113 5.07692383 57.77197266 5.30419922 C79.45366591 9.8102901 99.93068985 16.80685034 119.94311523 26.26074219 C120.61793945 26.57624023 121.29276367 26.89173828 121.98803711 27.21679688 C130.17733271 31.07175797 138.01964724 35.37319187 145.75561523 40.07324219 C146.52711914 40.54157471 147.29862305 41.00990723 148.09350586 41.49243164 C156.56787316 46.73770084 156.56787316 46.73770084 157.67358398 51.22558594 C164.39628118 109.6613385 154.93797234 170.809084 125.94311523 222.26074219 C125.26605256 223.58882666 124.5941122 224.91968843 123.94311523 226.26074219 C120.55464379 225.13125171 119.7461734 224.13791 117.50561523 221.44824219 C115.08621691 218.59314714 112.64596294 215.85547598 109.94311523 213.26074219 C111.27240903 208.73968254 113.15337033 204.72372903 115.26855469 200.53808594 C137.93624801 155.36452014 139.34156294 107.64373741 138.94311523 58.26074219 C137.8083374 57.82290405 137.8083374 57.82290405 136.65063477 57.3762207 C133.19203104 55.95130092 130.04292018 54.07617442 126.81811523 52.19824219 C102.2836724 38.26283672 75.85343765 27.88764163 47.94311523 23.26074219 C47.24064667 23.13759644 46.5381781 23.01445068 45.81442261 22.88757324 C32.20399492 20.53373769 18.89771884 19.78762759 5.09521484 19.86962891 C1.87937146 19.88574842 -1.335219 19.86965343 -4.55102539 19.85058594 C-39.83336366 19.81601327 -74.00145211 29.07557706 -105.68188477 44.38574219 C-107.43033691 45.22758057 -107.43033691 45.22758057 -109.21411133 46.08642578 C-120.73079661 51.75033743 -120.73079661 51.75033743 -131.05688477 59.26074219 C-131.38688477 60.91074219 -131.71688477 62.56074219 -132.05688477 64.26074219 C-137.99688477 64.26074219 -143.93688477 64.26074219 -150.05688477 64.26074219 C-150.32372588 49.85132201 -150.32372588 49.85132201 -148.05688477 46.26074219 C-146.2512207 44.7878418 -146.2512207 44.7878418 -144.04125977 43.41308594 C-143.21384277 42.89584961 -142.38642578 42.37861328 -141.53393555 41.84570312 C-140.18404541 41.03020996 -140.18404541 41.03020996 -138.80688477 40.19824219 C-137.8695752 39.62750977 -136.93226563 39.05677734 -135.96655273 38.46875 C-105.64968193 20.28973075 -72.10611168 7.4219086 -37.05688477 2.26074219 C-35.86893311 2.08269043 -34.68098145 1.90463867 -33.45703125 1.72119141 C-22.30557985 0.16886111 -11.24709945 -0.04771552 0 0 Z " fill="#3EBAA9" transform="translate(504.056884765625,286.7392578125)"/>
<path d="M0 0 C2.69566096 3.41888708 3.91428686 5.54291695 4 10 C3.0953372 12.07565157 2.02256568 14.00993259 0.9296875 15.9921875 C-1.38218493 20.98505485 0.1463287 26.77126332 1 32 C1.66 32 2.32 32 3 32 C3 32.99 3 33.98 3 35 C4.485 35.495 4.485 35.495 6 36 C6 36.66 6 37.32 6 38 C7.1446875 38.185625 7.1446875 38.185625 8.3125 38.375 C11 39 11 39 14 41 C21.07145449 41.91899887 27.26487486 41.82033703 33.21875 37.6796875 C35.23318391 35.89492804 35.23318391 35.89492804 37.19921875 32.84375 C40.40469501 29.58909627 40.40469501 29.58909627 43.98828125 29.4140625 C45.43086011 29.45358521 46.87287302 29.52465067 48.3125 29.625 C49.05306641 29.65207031 49.79363281 29.67914063 50.55664062 29.70703125 C52.37235998 29.77731716 54.18656801 29.88492911 56 30 C56.30017342 35.69579063 55.34390393 40.18711035 53.5 45.5625 C53.23082764 46.34898926 52.96165527 47.13547852 52.68432617 47.94580078 C48.00915471 61.04371232 40.81637919 71.29677792 31 81 C30.27039063 81.73992187 29.54078125 82.47984375 28.7890625 83.2421875 C11.08040682 100.16086598 -11.83074061 104.55766724 -35.421875 104.26953125 C-57.33947609 103.63717295 -77.51689724 92.54068511 -92.5234375 76.8671875 C-99.79811601 68.44508336 -105.15220581 59.62216383 -109.0625 49.1875 C-109.49308716 48.04196655 -109.49308716 48.04196655 -109.93237305 46.87329102 C-111.34745954 42.81251299 -112.1973776 39.00140323 -112.57983398 34.7121582 C-112.66112045 33.82559036 -112.74240692 32.93902252 -112.82615662 32.02558899 C-112.88352493 31.35714462 -112.94089325 30.68870026 -113 30 C-111.71311279 29.98541748 -110.42622559 29.97083496 -109.1003418 29.95581055 C-104.3310145 29.89788852 -99.56216238 29.82065537 -94.79321289 29.73754883 C-92.7281871 29.70427076 -90.66306973 29.67624786 -88.59790039 29.65356445 C-85.63127568 29.62007145 -82.66549252 29.56775855 -79.69921875 29.51171875 C-78.31158577 29.50213387 -78.31158577 29.50213387 -76.8959198 29.49235535 C-76.03525406 29.47256119 -75.17458832 29.45276703 -74.2878418 29.43237305 C-73.53061325 29.42126999 -72.7733847 29.41016693 -71.99320984 29.39872742 C-69.47751792 28.89548119 -68.6037871 27.9594779 -67 26 C-65.98417752 24.28808692 -65.98417752 24.28808692 -65.17578125 22.42578125 C-64.86962891 21.75869141 -64.56347656 21.09160156 -64.24804688 20.40429688 C-63.93931641 19.71400391 -63.63058594 19.02371094 -63.3125 18.3125 C-62.99216797 17.61060547 -62.67183594 16.90871094 -62.34179688 16.18554688 C-61.55520853 14.45974857 -60.77679403 12.7302289 -60 11 C-59.34 11 -58.68 11 -58 11 C-56.61071999 14.20118785 -55.22187506 17.40256349 -53.83374023 20.60424805 C-52.64882113 23.33695304 -51.46188541 26.06877058 -50.27368164 28.80004883 C-47.56333314 35.03681968 -44.8689494 41.27677051 -42.2734375 47.5625 C-41.87374756 48.52325439 -41.47405762 49.48400879 -41.06225586 50.47387695 C-40.32944735 52.24187491 -39.6058202 54.01371524 -38.89282227 55.78979492 C-36.64806319 61.37476276 -36.64806319 61.37476276 -32 65 C-28.9577587 65.64800683 -28.9577587 65.64800683 -26 64 C-24.72091228 61.9259182 -24.72091228 61.9259182 -23.66796875 59.33984375 C-23.23734131 58.3437207 -22.80671387 57.34759766 -22.36303711 56.32128906 C-20.16623742 50.96838507 -18.06563121 45.58092907 -16.00671387 40.17385864 C-14.71060552 36.77160036 -13.40293311 33.37380758 -12.09375 29.9765625 C-11.83333923 29.30071609 -11.57292847 28.62486969 -11.30462646 27.92854309 C-7.68373648 18.55953623 -3.85917543 9.27298796 0 0 Z " fill="#FCFDFD" transform="translate(536,415)"/>
<path d="M0 0 C6.27 0 12.54 0 19 0 C19.08636719 2.50207031 19.17273438 5.00414062 19.26171875 7.58203125 C20.01986875 27.4482203 21.37814958 46.59230336 26 66 C26.29994873 67.27109619 26.29994873 67.27109619 26.60595703 68.56787109 C27.87074645 73.77998494 29.34363582 78.89943137 31 84 C31.23380371 84.72461426 31.46760742 85.44922852 31.70849609 86.19580078 C42.72176681 119.58408821 61.73808585 153.45894771 89.04296875 176.34765625 C90.34525059 177.44718762 91.61962958 178.58065917 92.86328125 179.74609375 C107.06666313 193.01177663 123.82531086 203.08442804 141 212 C141.95406738 212.50144531 142.90813477 213.00289062 143.89111328 213.51953125 C149.33273781 216.21481995 152.94725622 217.89807296 159 216 C162.01720747 214.85536646 164.91160946 213.53712141 167.8125 212.125 C168.63709717 211.72716309 169.46169434 211.32932617 170.3112793 210.91943359 C187.965938 202.22071879 203.71278414 191.29934354 217.9140625 177.6796875 C221.24186047 175 221.24186047 175 224 175 C226.2890625 176.6953125 226.2890625 176.6953125 228.625 179.125 C229.40101563 179.91132812 230.17703125 180.69765625 230.9765625 181.5078125 C232.98335714 183.97950165 233.89944828 186.04653505 235 189 C229.63971613 194.62440051 224.05036787 199.56069166 217.8125 204.1875 C216.94520264 204.83114502 216.07790527 205.47479004 215.18432617 206.13793945 C169.6469881 239.4588416 169.6469881 239.4588416 151 238 C147.76934416 236.9688304 144.74968162 235.57478337 141.6875 234.125 C140.81448242 233.72007324 139.94146484 233.31514648 139.04199219 232.89794922 C79.3446611 204.77526361 35.74191967 156.12795407 13.47460938 94.23046875 C7.13866034 75.82035268 3.23167882 56.32147915 1 37 C0.90356201 36.16605713 0.80712402 35.33211426 0.70776367 34.47290039 C-0.05851884 27.07716405 -0.11673355 19.74249694 -0.0625 12.3125 C-0.05798828 11.12205078 -0.05347656 9.93160156 -0.04882812 8.70507812 C-0.03717465 5.80336317 -0.01924471 2.90167454 0 0 Z " fill="#3FB8A8" transform="translate(353,373)"/>
<path d="M0 0 C4.29 0 8.58 0 13 0 C13.80824219 1.55589844 14.61648437 3.11179687 15.44921875 4.71484375 C16.52858092 6.78909628 17.60801165 8.86331313 18.6875 10.9375 C19.21794922 11.95908203 19.74839844 12.98066406 20.29492188 14.03320312 C23.13085135 19.47888366 26.01333435 24.87027021 29.12817383 30.16235352 C30 32 30 32 30 35 C30.66 35 31.32 35 32 35 C32.2582959 34.1529248 32.5165918 33.30584961 32.78271484 32.43310547 C34.06885584 28.80580609 35.68815077 25.46594273 37.4765625 22.0703125 C37.80667328 21.43511688 38.13678406 20.79992126 38.47689819 20.14547729 C39.52216266 18.13648152 40.57346663 16.13072039 41.625 14.125 C42.33894465 12.75541833 43.05249036 11.38562861 43.765625 10.015625 C45.50508259 6.67424832 47.25268832 3.33732279 49 0 C53.62 0 58.24 0 63 0 C63 19.47 63 38.94 63 59 C59.04 59 55.08 59 51 59 C50.67 47.12 50.34 35.24 50 23 C45.43554924 31.83962901 45.43554924 31.83962901 40.87524414 40.68139648 C40.30926514 41.77524658 39.74328613 42.86909668 39.16015625 43.99609375 C38.57886963 45.12200928 37.99758301 46.2479248 37.39868164 47.40795898 C36 50 36 50 35 51 C32.32941149 51.14115161 29.67567762 51.04247107 27 51 C18.69921875 34.3984375 18.69921875 34.3984375 17.27880859 31.54980469 C16.51944864 30.03572387 15.75389875 28.52468105 14.97509766 27.02050781 C13 23.20036008 13 23.20036008 13 21 C12.34 21 11.68 21 11 21 C11 33.21 11 45.42 11 58 C7.37 58 3.74 58 0 58 C0 38.86 0 19.72 0 0 Z " fill="#323974" transform="translate(215,658)"/>
<path d="M0 0 C6.80421655 2.66762894 11.09980244 7.60833528 14.82421875 13.76171875 C16.57728097 21.94267576 15.60145615 29.1985782 11.203125 36.296875 C6.73217791 42.26235964 0.9068942 44.70321148 -6.3515625 45.80078125 C-13.41878586 46.18063201 -18.77628069 44.33976204 -24.61328125 40.38671875 C-30.0534286 35.08606236 -31.80266708 29.41468975 -32.11328125 22.01171875 C-31.93321998 15.73838393 -30.79635254 11.15503626 -26.61328125 6.38671875 C-18.34905614 -0.35289931 -10.64162887 -2.49736283 0 0 Z " fill="#2E3774" transform="translate(532.61328125,671.61328125)"/>
<path d="M0 0 C4.29 0 8.58 0 13 0 C13.65484375 1.68480469 14.3096875 3.36960937 14.984375 5.10546875 C20.59140117 19.4795053 26.33374618 33.7852313 32.29003906 48.01831055 C32.77569336 49.18144775 33.26134766 50.34458496 33.76171875 51.54296875 C34.410802 53.0902063 34.410802 53.0902063 35.07299805 54.66870117 C36 57 36 57 36 58 C31.71 58 27.42 58 23 58 C19 48.25 19 48.25 19 46 C10.42 46 1.84 46 -7 46 C-7.99 49.3 -8.98 52.6 -10 56 C-10.33 56.66 -10.66 57.32 -11 58 C-14.96 58 -18.92 58 -23 58 C-20.41541873 48.34182789 -16.51106605 39.31279716 -12.625 30.125 C-11.95786453 28.5379574 -11.29119479 26.95071894 -10.625 25.36328125 C-9.34260886 22.30918741 -8.05773854 19.25615864 -6.77050781 16.20410156 C-4.49656529 10.80981994 -2.24721951 5.40547396 0 0 Z " fill="#43BAAC" transform="translate(772,658)"/>
<path d="M0 0 C1.51400391 0.01740234 1.51400391 0.01740234 3.05859375 0.03515625 C4.07050781 0.04417969 5.08242188 0.05320312 6.125 0.0625 C6.90746094 0.07410156 7.68992187 0.08570313 8.49609375 0.09765625 C9.62209876 3.78485011 10.74671626 7.47246579 11.87109375 11.16015625 C12.18820312 12.19849609 12.5053125 13.23683594 12.83203125 14.30664062 C14.43251693 19.55823426 16.0116228 24.81203999 17.49609375 30.09765625 C17.82609375 30.09765625 18.15609375 30.09765625 18.49609375 30.09765625 C18.79845947 29.00094604 18.79845947 29.00094604 19.10693359 27.88208008 C20.02537404 24.55728346 20.9481879 21.23371599 21.87109375 17.91015625 C22.18820312 16.75966797 22.5053125 15.60917969 22.83203125 14.42382812 C23.14140625 13.31201172 23.45078125 12.20019531 23.76953125 11.0546875 C24.05231934 10.0335083 24.33510742 9.0123291 24.62646484 7.96020508 C25.43744151 5.29072124 26.45993192 2.68806081 27.49609375 0.09765625 C31.12609375 0.09765625 34.75609375 0.09765625 38.49609375 0.09765625 C36.07053942 8.41384254 33.37092969 16.6268815 30.625 24.84130859 C29.86362138 27.12002012 29.10550547 29.39980006 28.34765625 31.6796875 C27.86347394 33.13157469 27.37910587 34.58339995 26.89453125 36.03515625 C26.66849213 36.71529785 26.442453 37.39543945 26.20956421 38.09619141 C24.61110042 42.86764291 24.61110042 42.86764291 23.49609375 45.09765625 C19.53609375 45.09765625 15.57609375 45.09765625 11.49609375 45.09765625 C10.34556233 41.39072212 9.20052016 37.68224105 8.05859375 33.97265625 C7.73310547 32.9259375 7.40761719 31.87921875 7.07226562 30.80078125 C6.60336914 29.27324219 6.60336914 29.27324219 6.125 27.71484375 C5.69296265 26.31661377 5.69296265 26.31661377 5.25219727 24.89013672 C4.46270737 21.97435195 3.94489531 19.08324605 3.49609375 16.09765625 C2.83609375 16.09765625 2.17609375 16.09765625 1.49609375 16.09765625 C1.42132813 16.68289063 1.3465625 17.268125 1.26953125 17.87109375 C-0.17616828 27.31066128 -3.3621154 36.11687673 -6.50390625 45.09765625 C-10.46390625 45.09765625 -14.42390625 45.09765625 -18.50390625 45.09765625 C-18.82141846 44.13988281 -19.13893066 43.18210937 -19.46606445 42.1953125 C-20.65541849 38.60901742 -21.84682344 35.02340637 -23.03881836 31.43798828 C-23.55239059 29.89227294 -24.06542193 28.34637777 -24.57788086 26.80029297 C-25.31869296 24.56559396 -26.06151068 22.3315698 -26.8046875 20.09765625 C-27.02981522 19.41711182 -27.25494293 18.73656738 -27.4868927 18.03540039 C-28.63752012 14.5831231 -29.85259125 11.1766516 -31.17260742 7.78515625 C-32.50390625 4.09765625 -32.50390625 4.09765625 -32.50390625 1.09765625 C-28.87390625 1.09765625 -25.24390625 1.09765625 -21.50390625 1.09765625 C-20.37701932 4.45119944 -19.25234059 7.80545649 -18.12890625 11.16015625 C-17.81179688 12.10310547 -17.4946875 13.04605469 -17.16796875 14.01757812 C-15.49559092 19.01729101 -13.90006716 24.01365617 -12.50390625 29.09765625 C-9.7788314 26.3725814 -9.50864483 23.88748558 -8.56640625 20.16015625 C-8.21763456 18.80463946 -7.86867451 17.44917113 -7.51953125 16.09375 C-7.34873047 15.42069824 -7.17792969 14.74764648 -7.00195312 14.05419922 C-6.2936122 11.27153052 -5.55988557 8.49612567 -4.81640625 5.72265625 C-4.58566406 4.84867188 -4.35492188 3.9746875 -4.1171875 3.07421875 C-3.22154932 0.18763965 -3.10379097 0.12105269 0 0 Z " fill="#343974" transform="translate(317.50390625,670.90234375)"/>
<path d="M0 0 C0.50144531 0.28875 1.00289062 0.5775 1.51953125 0.875 C1.00745981 4.63019057 0.30202305 7.54188525 -1.48046875 10.875 C-2.91840267 10.56450274 -4.35580055 10.2515224 -5.79296875 9.9375 C-6.99373047 9.67646484 -6.99373047 9.67646484 -8.21875 9.41015625 C-10.48046875 8.875 -10.48046875 8.875 -13.48046875 7.875 C-15.14415133 7.75733824 -16.81267678 7.69990917 -18.48046875 7.6875 C-19.34671875 7.67332031 -20.21296875 7.65914062 -21.10546875 7.64453125 C-23.74768412 7.71244062 -23.74768412 7.71244062 -26.48046875 9.875 C-27.06392351 12.83246492 -27.06392351 12.83246492 -26.48046875 15.875 C-22.64373608 19.80119016 -17.08612363 20.5223828 -11.94335938 21.8046875 C-5.51932014 23.53752506 -0.37729715 26.06035141 3.45703125 31.75 C5.21576946 36.92275945 5.13872614 40.98928142 3.01953125 46 C0.0950017 51.39832515 -4.80543236 53.9833212 -10.48046875 55.875 C-22.55883599 56.79500621 -32.12336229 55.77973764 -42.48046875 48.875 C-41.87055984 45.31719804 -40.90210065 42.1921411 -39.48046875 38.875 C-35.87625434 39.98398905 -32.59124445 41.31662745 -29.23046875 43 C-24.28558693 45.23020852 -19.83804979 45.64036872 -14.48046875 44.875 C-11.34977458 43.92035414 -11.34977458 43.92035414 -9.48046875 41.875 C-8.56355438 39.41959933 -8.56355438 39.41959933 -9.48046875 36.875 C-13.84266228 32.75515055 -18.77250765 31.97106795 -24.50390625 30.6484375 C-30.96820567 28.96873765 -35.79035702 26.6315743 -39.48046875 20.875 C-40.83819041 16.80183502 -40.99912723 13.1338436 -40.48046875 8.875 C-33.07443735 -5.93706279 -13.62578466 -6.68522314 0 0 Z " fill="#42BAAD" transform="translate(595.48046875,661.125)"/>
<path d="M0 0 C3.71291881 2.67428293 5.36220521 6.04364688 6.7734375 10.27734375 C6.8579762 12.71842135 6.88949536 15.12993588 6.87109375 17.5703125 C6.8696788 18.27634109 6.86826385 18.98236969 6.86680603 19.70979309 C6.86121514 21.96152001 6.84866438 24.21314696 6.8359375 26.46484375 C6.83092132 27.9928371 6.82635862 29.52083202 6.82226562 31.04882812 C6.8112487 34.7917051 6.79399037 38.53450748 6.7734375 42.27734375 C3.1434375 42.27734375 -0.4865625 42.27734375 -4.2265625 42.27734375 C-4.2265625 40.62734375 -4.2265625 38.97734375 -4.2265625 37.27734375 C-4.69707031 37.62667969 -5.16757812 37.97601562 -5.65234375 38.3359375 C-6.27496094 38.79097656 -6.89757812 39.24601563 -7.5390625 39.71484375 C-8.15394531 40.16730469 -8.76882813 40.61976563 -9.40234375 41.0859375 C-13.924859 44.03961448 -19.02674236 43.84545763 -24.2265625 43.27734375 C-27.96243068 42.00201955 -30.57408784 40.03505626 -33.1640625 37.02734375 C-34.5786508 33.36605639 -34.88211586 30.11270766 -34.2265625 26.27734375 C-32.17016011 21.82180523 -29.49820435 19.04022583 -24.99609375 16.95703125 C-18.59217536 15.38540671 -11.76869581 16.00971102 -5.2265625 16.27734375 C-5.8865625 13.63734375 -6.5465625 10.99734375 -7.2265625 8.27734375 C-15.1114618 6.30611892 -20.80664908 7.39182186 -28.2265625 10.27734375 C-29.7890625 7.46484375 -29.7890625 7.46484375 -31.2265625 4.27734375 C-30.2265625 1.27734375 -30.2265625 1.27734375 -28.65234375 0.109375 C-19.68290114 -4.21784223 -8.95109004 -4.67519759 0 0 Z " fill="#343A76" transform="translate(392.2265625,673.72265625)"/>
<path d="M0 0 C3.9614221 2.97106658 6.9035406 6.08562181 8.5 10.875 C8.58481773 13.46130224 8.61598229 16.01978056 8.59765625 18.60546875 C8.5962413 19.35588943 8.59482635 20.10631012 8.59336853 20.87947083 C8.5877756 23.2738546 8.57522444 25.66814453 8.5625 28.0625 C8.55748408 29.68684761 8.55292134 31.31119668 8.54882812 32.93554688 C8.53780848 36.91540069 8.52054873 40.89518444 8.5 44.875 C4.87 44.875 1.24 44.875 -2.5 44.875 C-2.995 42.4 -2.995 42.4 -3.5 39.875 C-4.17482422 40.41640625 -4.17482422 40.41640625 -4.86328125 40.96875 C-9.86931893 44.58032027 -13.77977779 45.59966451 -19.9453125 45.30078125 C-24.46671529 44.54721412 -27.1549359 42.39466377 -30.125 39.0390625 C-32.55015246 35.22220323 -32.2419444 31.23048842 -31.5 26.875 C-29.49497969 22.97634939 -26.54040238 20.51226892 -22.5 18.875 C-20.30175781 18.64794922 -20.30175781 18.64794922 -17.953125 18.6796875 C-16.68662109 18.68935547 -16.68662109 18.68935547 -15.39453125 18.69921875 C-14.52183594 18.71597656 -13.64914062 18.73273437 -12.75 18.75 C-11.41775391 18.76353516 -11.41775391 18.76353516 -10.05859375 18.77734375 C-7.87211942 18.80085423 -5.68619906 18.83371501 -3.5 18.875 C-3.78151087 17.56028432 -4.07553339 16.24824233 -4.375 14.9375 C-4.53742187 14.20660156 -4.69984375 13.47570312 -4.8671875 12.72265625 C-5.32961523 10.66799706 -5.32961523 10.66799706 -7.5 9.875 C-9.45549256 9.75242539 -11.41570618 9.69947612 -13.375 9.6875 C-14.42429687 9.67332031 -15.47359375 9.65914062 -16.5546875 9.64453125 C-19.48373964 9.87372764 -20.9733852 10.49137761 -23.5 11.875 C-24.49 11.875 -25.48 11.875 -26.5 11.875 C-27.99821059 8.50402617 -28.5 6.67057881 -28.5 2.875 C-19.47337678 -1.19583008 -9.70543134 -3.11960293 0 0 Z " fill="#46BBAD" transform="translate(682.5,672.125)"/>
<path d="M0 0 C13.29985653 1.63558106 13.29985653 1.63558106 18 6 C20.20235276 8.88859312 22.16742954 11.86475896 24 15 C24.59167969 15.98226563 24.59167969 15.98226563 25.1953125 16.984375 C26.65890541 20.65046209 25.5631853 24.17033999 25 28 C30.28 28.33 35.56 28.66 41 29 C40.505 30.485 40.505 30.485 40 32 C40 31.34 40 30.68 40 30 C30.48038208 29.5267332 30.48038208 29.5267332 21.84765625 32.484375 C20.41773232 34.29107412 20.41773232 34.29107412 19.1875 36.2109375 C17.11234854 39.337317 14.4997315 40.94004548 11 42 C3.31817945 42.95286009 -3.6166598 42.70103133 -10 38 C-11.7109375 36.55078125 -11.7109375 36.55078125 -13 35 C-13 34.01 -13 33.02 -13 32 C-13.66 32 -14.32 32 -15 32 C-17.05438425 25.70844823 -18.21653751 20.26006075 -15.5 13.9375 C-13.0076326 9.39467432 -9.51097502 6.48017209 -5 4 C-1.5 3.125 -1.5 3.125 1 3 C0.67 2.01 0.34 1.02 0 0 Z " fill="#FDF3DB" transform="translate(552,415)"/>
<path d="M0 0 C5.30849035 1.70630047 7.35081549 4.16208777 10 9 C10.51208042 11.83657325 10.46907949 14.58617352 10.390625 17.4609375 C10.38496521 18.25150543 10.37930542 19.04207336 10.37347412 19.8565979 C10.35121487 22.36336727 10.30104153 24.86866813 10.25 27.375 C10.22992133 29.0820105 10.21167296 30.78904357 10.1953125 32.49609375 C10.15138484 36.66462196 10.08243296 40.83206264 10 45 C6.37 45 2.74 45 -1 45 C-1.0093457 44.14245117 -1.01869141 43.28490234 -1.02832031 42.40136719 C-1.07241291 39.21027321 -1.13406056 36.02013244 -1.20751953 32.82958984 C-1.23569099 31.45048349 -1.25692472 30.07121682 -1.27099609 28.69189453 C-1.29247545 26.70577051 -1.34123132 24.72000091 -1.390625 22.734375 C-1.41157227 21.54038086 -1.43251953 20.34638672 -1.45410156 19.11621094 C-2.1037255 15.40789255 -2.98695012 14.20281798 -6 12 C-10.11191798 11.31414363 -10.11191798 11.31414363 -14 12 C-17.20433855 14.6164531 -18.82048562 16.12077168 -19.65942383 20.22973633 C-19.67513428 21.41849365 -19.69084473 22.60725098 -19.70703125 23.83203125 C-19.73603516 25.12431641 -19.76503906 26.41660156 -19.79492188 27.74804688 C-19.8013102 29.10286219 -19.80716288 30.45768013 -19.8125 31.8125 C-19.83565748 33.1868884 -19.86102545 34.56124144 -19.88867188 35.93554688 C-19.94753342 39.29065515 -19.98382337 42.64445874 -20 46 C-23.96 46 -27.92 46 -32 46 C-32 31.15 -32 16.3 -32 1 C-28.37 1 -24.74 1 -21 1 C-20.67 2.98 -20.34 4.96 -20 7 C-19.236875 6.21625 -18.47375 5.4325 -17.6875 4.625 C-12.06063785 -0.87100489 -7.54965686 -0.62997137 0 0 Z " fill="#323875" transform="translate(441,671)"/>
<path d="M0 0 C5.25070216 1.71841162 7.31921079 4.23415251 10 9 C11.21077701 12.63233102 11.12444164 15.95121987 11.09765625 19.73046875 C11.0962413 20.48088943 11.09482635 21.23131012 11.09336853 22.00447083 C11.0877756 24.3988546 11.07522444 26.79314453 11.0625 29.1875 C11.05748408 30.81184761 11.05292134 32.43619668 11.04882812 34.06054688 C11.03780848 38.04040069 11.02054873 42.02018444 11 46 C7.04 46 3.08 46 -1 46 C-1.0093457 45.1121582 -1.01869141 44.22431641 -1.02832031 43.30957031 C-1.07240681 40.00654081 -1.13404746 36.70479993 -1.20751953 33.40234375 C-1.23569611 31.97473063 -1.25692727 30.54696247 -1.27099609 29.11914062 C-1.29247392 27.06299668 -1.33913974 25.00870998 -1.390625 22.953125 C-1.41157227 21.71723633 -1.43251953 20.48134766 -1.45410156 19.20800781 C-2.09052394 15.46803017 -3.02895808 14.27902689 -6 12 C-8.75830779 11.21883861 -11.21910409 11.32047923 -14 12 C-18.22529155 16.11695074 -19.12141807 19.14458901 -19.31640625 24.8828125 C-19.35830078 26.04941406 -19.40019531 27.21601562 -19.44335938 28.41796875 C-19.50233398 30.25294922 -19.50233398 30.25294922 -19.5625 32.125 C-19.60568359 33.35605469 -19.64886719 34.58710937 -19.69335938 35.85546875 C-19.79968704 38.90352853 -19.90171781 41.9516719 -20 45 C-23.63 45 -27.26 45 -31 45 C-31 30.48 -31 15.96 -31 1 C-27.37 1 -23.74 1 -20 1 C-19.67 2.98 -19.34 4.96 -19 7 C-18.236875 6.21625 -17.47375 5.4325 -16.6875 4.625 C-11.28246051 -0.6543409 -7.25504707 -0.65482517 0 0 Z " fill="#46BAAD" transform="translate(733,671)"/>
<path d="M0 0 C12.21 0 24.42 0 37 0 C37 8.65975909 36.91726402 10.39832735 31.5 15.9375 C30.39713131 17.13942777 29.29557446 18.34256053 28.1953125 19.546875 C27.65165039 20.12888672 27.10798828 20.71089844 26.54785156 21.31054688 C24.37614187 23.68093032 22.37102526 26.16853085 20.375 28.6875 C19.76398438 29.45449219 19.15296875 30.22148438 18.5234375 31.01171875 C17.2853052 32.62764014 16.12921668 34.30617498 15 36 C22.26 36 29.52 36 37 36 C37 38.97 37 41.94 37 45 C24.79 45 12.58 45 0 45 C0 36.01538462 0 36.01538462 3.9375 31.6875 C4.75347656 30.76195312 5.56945312 29.83640625 6.41015625 28.8828125 C7.26480469 27.93148437 8.11945313 26.98015625 9 26 C10.63535674 24.02938233 12.26077363 22.05046351 13.875 20.0625 C14.59429687 19.18722656 15.31359375 18.31195312 16.0546875 17.41015625 C17.74965977 15.31016049 19.38078761 13.15894985 21 11 C14.07 10.67 7.14 10.34 0 10 C0 6.7 0 3.4 0 0 Z " fill="#313978" transform="translate(459,671)"/>
<path d="M0 0 C3.70922154 2.2129326 6.12587176 4.77551525 8.5 8.375 C8.17 9.365 7.84 10.355 7.5 11.375 C5.5390625 12.2109375 5.5390625 12.2109375 3.125 12.75 C2.33351563 12.94335938 1.54203125 13.13671875 0.7265625 13.3359375 C-1.5 13.375 -1.5 13.375 -3.1015625 11.9765625 C-3.56304688 11.44804688 -4.02453125 10.91953125 -4.5 10.375 C-8.13782632 9.16239123 -10.67735999 8.97955448 -14.5 9.375 C-17.3971941 11.68773442 -17.3971941 11.68773442 -19.5 14.375 C-19.83 14.705 -20.16 15.035 -20.5 15.375 C-21.07995785 21.29726194 -21.01436656 26.35447634 -17.5 31.375 C-14.34493089 33.76850071 -11.3682349 33.83918819 -7.5 33.375 C-6.530625 32.694375 -5.56125 32.01375 -4.5625 31.3125 C-1.5 29.375 -1.5 29.375 2.1875 29.5 C5.5 30.375 5.5 30.375 8.5 32.375 C6.93723012 37.84469457 3.4311221 40.53258039 -1.27734375 43.4921875 C-6.98685356 45.75993656 -14.48225726 45.37661547 -20.2421875 43.46484375 C-26.7451326 40.06010313 -31.19187174 35.44049305 -33.5 28.375 C-34.30594257 20.5311171 -34.59671889 12.78315533 -29.5 6.375 C-21.78421731 -1.77959498 -10.64610557 -4.86679112 0 0 Z " fill="#44BDAF" transform="translate(638.5,672.625)"/>
<path d="M0 0 C3.63 0 7.26 0 11 0 C11 19.14 11 38.28 11 58 C7.37 58 3.74 58 0 58 C0 38.86 0 19.72 0 0 Z " fill="#40B6AB" transform="translate(814,658)"/>
<path d="M0 0 C4.16960522 1.76049998 6.27128428 3.81468826 8 8 C8.72222541 12.76492618 8.48624431 16.06224312 6.25 20.375 C2.78200552 24.42099356 1.51239133 25.83195652 -3.9375 26.4375 C-8.04824304 26.27674469 -10.13888164 25.02941944 -13 22 C-15.70397538 17.52511117 -15.66641218 13.09042555 -15 8 C-11.45582513 1.15607611 -7.62204629 -0.95462028 0 0 Z " fill="#F7F7F9" transform="translate(528,681)"/>
<path d="M0 0 C2.93423195 1.79646854 4.47205355 2.9441071 6 6 C6.44080589 10.3148115 6.47056025 13.94684134 4.6875 17.9375 C2.62521745 20.45806757 0.96895962 21.85876182 -2.3046875 22.3359375 C-6.57276853 22.40080195 -9.24596584 22.43985326 -13 20.25 C-15.97070889 16.9079525 -16.85728634 15.10093393 -17.4375 10.625 C-16.85694294 5.8146701 -15.38607407 4.38607407 -12 1 C-8.30274625 -0.84862688 -4.03538558 -0.47587094 0 0 Z " fill="#FBAF2A" transform="translate(561,426)"/>
<path d="M0 0 C2.09393405 2.67157103 2.89443027 5.06394556 3.8125 8.3125 C4.1425 8.9725 4.4725 9.6325 4.8125 10.3125 C5.33551509 14.04832204 5.65905192 17.73452722 3.8359375 21.1328125 C0.56447434 25.1268074 -2.97072108 28.56724587 -8.1875 29.3125 C-14.4441116 29.65376972 -18.09055243 29.11685024 -22.875 25 C-26.59013064 20.68241574 -27.71813809 16.85840021 -27.5703125 11.23046875 C-26.90529697 7.89860521 -24.73111103 6.40391351 -22.1875 4.3125 C-20.9190625 2.95125 -20.9190625 2.95125 -19.625 1.5625 C-17.19581024 -0.67982901 -16.354933 -1.30356873 -13.1875 -1.6875 C-12.218125 -1.89375 -11.24875 -2.1 -10.25 -2.3125 C-5.9698637 -2.83659832 -3.45939081 -2.66867291 0 0 Z M-22.1875 7.3125 C-23.7422669 10.42203379 -23.47394437 12.87516761 -23.1875 16.3125 C-21.16083762 20.01640021 -19.70705484 21.96613011 -16.1875 24.3125 C-11.33273949 25.02014306 -7.38561251 25.021587 -3.125 22.5 C0.13321484 18.82137034 0.1437354 15.23820658 0.10546875 10.5390625 C-0.32803381 7.24444303 -1.81299542 5.54732784 -4.1875 3.3125 C-10.98447307 -0.08598654 -17.35223626 2.10529289 -22.1875 7.3125 Z " fill="#FCE8BC" transform="translate(567.1875,423.6875)"/>
<path d="M0 0 C0.66 0 1.32 0 2 0 C3.3417678 3.26743656 4.67194359 6.53946908 6 9.8125 C6.3815625 10.74126953 6.763125 11.67003906 7.15625 12.62695312 C7.5171875 13.51962891 7.878125 14.41230469 8.25 15.33203125 C8.58515625 16.15421143 8.9203125 16.9763916 9.265625 17.82348633 C10 20 10 20 10 23 C4.39 23 -1.22 23 -7 23 C-6.35566405 19.13398431 -5.86949609 16.23477641 -4.58984375 12.6953125 C-4.18862305 11.57382812 -4.18862305 11.57382812 -3.77929688 10.4296875 C-3.50150391 9.66914062 -3.22371094 8.90859375 -2.9375 8.125 C-2.65583984 7.34125 -2.37417969 6.5575 -2.08398438 5.75 C-1.39386218 3.83169424 -0.69755684 1.91561481 0 0 Z " fill="#EAF8F4" transform="translate(777,672)"/>
<path d="M0 0 C1.17949219 0.01804687 2.35898437 0.03609375 3.57421875 0.0546875 C4.92966797 0.08949219 4.92966797 0.08949219 6.3125 0.125 C6.6875 3.3125 6.6875 3.3125 6.3125 7.125 C3.05570878 10.85839481 1.58089855 11.92817954 -3.3125 12.6875 C-6.6875 12.125 -6.6875 12.125 -9.1875 10.5 C-10.6875 8.125 -10.6875 8.125 -10.625 5 C-8.80718552 -0.57463108 -5.16197264 -0.10221728 0 0 Z " fill="#EFF9F6" transform="translate(672.6875,696.875)"/>
<path d="M0 0 C1.90845703 0.04060547 1.90845703 0.04060547 3.85546875 0.08203125 C5.31919922 0.13423828 5.31919922 0.13423828 6.8125 0.1875 C7.109375 5.8359375 7.109375 5.8359375 4.4375 9 C0.67089732 12.13883557 -1.29262 12.5790904 -6.1875 12.1875 C-8.5625 11.0625 -8.5625 11.0625 -10.1875 9.1875 C-10.63470723 6.12093612 -10.81761574 4.16691903 -9.109375 1.51171875 C-6.14717217 -0.52931125 -3.53784313 -0.09737183 0 0 Z " fill="#EFEFF4" transform="translate(380.1875,696.8125)"/>
<path d="M0 0 C0.66 1.65 1.32 3.3 2 5 C0.89591797 4.93039062 0.89591797 4.93039062 -0.23046875 4.859375 C-6.47247842 4.54894404 -6.47247842 4.54894404 -12.125 6.875 C-14.53453907 9.60581095 -14.95892733 10.57284426 -15.3125 14.25 C-14.94713599 18.63436813 -13.73973233 20.61562477 -11 24 C-8.56045342 25.21977329 -6.84694151 25.20153813 -4.125 25.25 C-3.26132812 25.27578125 -2.39765625 25.3015625 -1.5078125 25.328125 C1.57179436 24.92518578 2.83931009 24.22310984 5 22 C5.90561146 19.5170581 5.90561146 19.5170581 6.25 16.8125 C6.39953125 15.91144531 6.5490625 15.01039063 6.703125 14.08203125 C6.80109375 13.39496094 6.8990625 12.70789063 7 12 C7.33 12 7.66 12 8 12 C9.29675757 19.49237707 9.29675757 19.49237707 8 23 C4.37199122 27.00592636 -0.31391078 28.99847905 -5.65234375 29.328125 C-10.27250781 28.68237828 -13.68417362 26.1667207 -17 23 C-19.48080827 18.51546198 -19.31382394 14.90494273 -18 10 C-15.6875 6.8125 -15.6875 6.8125 -13 4 C-12.4225 3.21625 -11.845 2.4325 -11.25 1.625 C-7.75036856 -0.9025116 -4.17851796 -0.32142446 0 0 Z " fill="#FBE0AA" transform="translate(560,422)"/>
<path d="M0 0 C0.99 0.66 1.98 1.32 3 2 C1.39658445 2.33692785 -0.20776555 2.66941093 -1.8125 3 C-2.70582031 3.185625 -3.59914063 3.37125 -4.51953125 3.5625 C-7 4 -7 4 -10 4 C-12.70239744 6.42522847 -14.95855488 8.94671342 -17.1875 11.8125 C-17.785625 12.534375 -18.38375 13.25625 -19 14 C-19.66 14 -20.32 14 -21 14 C-19.73711202 21.95882957 -19.73711202 21.95882957 -16 29 C-15.443125 29.763125 -14.88625 30.52625 -14.3125 31.3125 C-13.879375 31.869375 -13.44625 32.42625 -13 33 C-18.0230312 30.74829636 -20.34472936 28.2283743 -22.42578125 23.03125 C-23.81776689 18.10721918 -23.84742788 13.59316441 -21.4375 9.0625 C-20.963125 8.381875 -20.48875 7.70125 -20 7 C-20.33 6.34 -20.66 5.68 -21 5 C-14.2080405 -0.91723744 -8.8000643 -2.11412956 0 0 Z " fill="#FBECC9" transform="translate(561,419)"/>
<path d="M0 0 C0.66 0.66 1.32 1.32 2 2 C1.96692593 5.05383879 1.43304158 7.96870896 1 11 C6.28 11.33 11.56 11.66 17 12 C16.67 12.99 16.34 13.98 16 15 C16 14.34 16 13.68 16 13 C6.48038208 12.5267332 6.48038208 12.5267332 -2.15234375 15.484375 C-3.58226768 17.29107412 -3.58226768 17.29107412 -4.8125 19.2109375 C-6.88202498 22.32884027 -9.49313685 23.97768124 -13 25 C-17.35608025 25.31114859 -21.64172319 25.23593679 -26 25 C-26 24.67 -26 24.34 -26 24 C-25.29875 23.98582031 -24.5975 23.97164063 -23.875 23.95703125 C-17.0467289 23.61376219 -12.27358533 22.46825949 -7 18 C-5.1873495 15.83779383 -5.1873495 15.83779383 -4 14 C-3.34 14 -2.68 14 -2 14 C-1.90912109 12.60974609 -1.90912109 12.60974609 -1.81640625 11.19140625 C-1.73261719 9.99386719 -1.64882813 8.79632813 -1.5625 7.5625 C-1.48128906 6.36753906 -1.40007813 5.17257812 -1.31640625 3.94140625 C-1 1 -1 1 0 0 Z " fill="#E5E4E3" transform="translate(576,432)"/>
<path d="M0 0 C1 3 1 3 1 5 C0.2575 5.515625 -0.485 6.03125 -1.25 6.5625 C-4.93281193 9.82681058 -6.26776132 13.47101843 -8 18 C-8.66 17.01 -9.32 16.02 -10 15 C-10.66 15.99 -11.32 16.98 -12 18 C-11.73093143 11.54235427 -9.41020622 7.68452527 -5 3 C-2.125 1 -2.125 1 0 0 Z " fill="#363C7C" transform="translate(513,673)"/>
<path d="M0 0 C0.33 0 0.66 0 1 0 C2.29675757 7.49237707 2.29675757 7.49237707 1 11 C-2.84893978 15.24987101 -7.33211941 16.60970971 -12.88671875 17.15234375 C-15.33708811 16.97569975 -16.89074556 16.22365326 -19 15 C-18.67 14.01 -18.34 13.02 -18 12 C-17.34 12.33 -16.68 12.66 -16 13 C-13.69589956 13.23604169 -13.69589956 13.23604169 -11.125 13.25 C-10.26132812 13.27578125 -9.39765625 13.3015625 -8.5078125 13.328125 C-5.42820564 12.92518578 -4.16068991 12.22310984 -2 10 C-1.09438854 7.5170581 -1.09438854 7.5170581 -0.75 4.8125 C-0.60046875 3.91144531 -0.4509375 3.01039063 -0.296875 2.08203125 C-0.19890625 1.39496094 -0.1009375 0.70789063 0 0 Z " fill="#FAD996" transform="translate(567,434)"/>
<path d="M0 0 C0.99 0.495 0.99 0.495 2 1 C2.33 7.93 2.66 14.86 3 22 C5.64 22.33 8.28 22.66 11 23 C11 23.33 11 23.66 11 24 C7.37 24 3.74 24 0 24 C0 16.08 0 8.16 0 0 Z " fill="#38BAAA" transform="translate(732,692)"/>
<path d="M0 0 C8.33308544 1.02478073 13.95934914 1.95934914 20 8 C19.67 8.99 19.34 9.98 19 11 C18.65066406 10.3709375 18.30132813 9.741875 17.94140625 9.09375 C14.57688764 5.46521484 9.86834767 5.64601532 5.15234375 4.90625 C2 4 2 4 0.56640625 1.90625 C0.28603516 0.96265625 0.28603516 0.96265625 0 0 Z " fill="#FDF8E5" transform="translate(552,415)"/>
<path d="M0 0 C1.32 0.33 2.64 0.66 4 1 C1.36 3.97 -1.28 6.94 -4 10 C-5 7 -5 7 -5 4 C-2.75 1.75 -2.75 1.75 0 0 Z M-6 10 C-4.3584951 13.2830098 -5.48111376 16.42545033 -6 20 C-6.33 20 -6.66 20 -7 20 C-7.02689216 18.52093108 -7.04634621 17.04172517 -7.0625 15.5625 C-7.07410156 14.73878906 -7.08570313 13.91507812 -7.09765625 13.06640625 C-7 11 -7 11 -6 10 Z " fill="#FBF0D5" transform="translate(545,420)"/>
<path d="M0 0 C0.99 1.32 1.98 2.64 3 4 C1.35 5.98 -0.3 7.96 -2 10 C-2.66 9.34 -3.32 8.68 -4 8 C-5.32 8.99 -6.64 9.98 -8 11 C-6.63629701 8.00779732 -5.05091917 5.70973471 -2.875 3.25 C-2.33617187 2.63640625 -1.79734375 2.0228125 -1.2421875 1.390625 C-0.62730469 0.70226562 -0.62730469 0.70226562 0 0 Z " fill="#31397B" transform="translate(480,692)"/>
<path d="M0 0 C3.63 0 7.26 0 11 0 C11 0.33 11 0.66 11 1 C9.14375 1.309375 9.14375 1.309375 7.25 1.625 C3.91690316 2.42872548 2.38034194 3.23635876 0.5 6.125 C-0.2425 7.548125 -0.2425 7.548125 -1 9 C-2.48576635 4.98843085 -1.80747878 4.51869696 0 0 Z " fill="#4F5489" transform="translate(315,671)"/>
<path d="M0 0 C1.32 0.33 2.64 0.66 4 1 C4 5.29 4 9.58 4 14 C3.34 14 2.68 14 2 14 C1.93941406 13.32453125 1.87882813 12.6490625 1.81640625 11.953125 C1.73261719 11.06109375 1.64882813 10.1690625 1.5625 9.25 C1.48128906 8.36828125 1.40007813 7.4865625 1.31640625 6.578125 C1.03761535 4.30649548 0.61209423 2.20148177 0 0 Z " fill="#FDE2AC" transform="translate(566,430)"/>
<path d="M0 0 C1.17571451 3.67410785 1.07366746 7.16929183 1 11 C0.01 11 -0.98 11 -2 11 C-2 7.7 -2 4.4 -2 1 C-1.34 0.67 -0.68 0.34 0 0 Z " fill="#3FB7A7" transform="translate(607,690)"/>
<path d="M0 0 C0.33 0 0.66 0 1 0 C1.103125 0.928125 1.20625 1.85625 1.3125 2.8125 C2.0070192 6.03254358 2.47740939 7.02579865 5 9 C4.34 10.32 3.68 11.64 3 13 C-0.36055646 8.51925805 -0.27429625 5.39449293 0 0 Z " fill="#515A87" transform="translate(358,700)"/>
<path d="M0 0 C1.65 0 3.3 0 5 0 C5 0.99 5 1.98 5 3 C2.5 5.1875 2.5 5.1875 0 7 C0 4.69 0 2.38 0 0 Z " fill="#E4E6ED" transform="translate(420,672)"/>
<path d="M0 0 C0 0.99 0 1.98 0 3 C-2.95664519 4.4783226 -5.74229737 4.06032783 -9 4 C-3.7826087 0 -3.7826087 0 0 0 Z " fill="#39B7AF" transform="translate(675,712)"/>
<path d="M0 0 C0.66 0.99 1.32 1.98 2 3 C1.5390625 5.04296875 1.5390625 5.04296875 0.625 7.1875 C0.32851563 7.90292969 0.03203125 8.61835937 -0.2734375 9.35546875 C-0.51320313 9.89816406 -0.75296875 10.44085937 -1 11 C-1.66 10.67 -2.32 10.34 -3 10 C-2.39009109 6.44219804 -1.4216319 3.3171411 0 0 Z " fill="#43C1AD" transform="translate(556,700)"/>
<path d="M0 0 C1.32 0.33 2.64 0.66 4 1 C2.35 2.98 0.7 4.96 -1 7 C-1.625 5.1875 -1.625 5.1875 -2 3 C-1.34 2.01 -0.68 1.02 0 0 Z " fill="#323F7F" transform="translate(541,705)"/>
<path d="M0 0 C0.33 0.99 0.66 1.98 1 3 C1.66 3 2.32 3 3 3 C2.34 4.32 1.68 5.64 1 7 C0.01 7 -0.98 7 -2 7 C-2.33 6.01 -2.66 5.02 -3 4 C-1.5625 1.8125 -1.5625 1.8125 0 0 Z " fill="#343F7D" transform="translate(534,700)"/>
<path d="M0 0 C-0.54723683 3.37462715 -1.0549 5.08235 -3 8 C-3.66 5.69 -4.32 3.38 -5 1 C-2 0 -2 0 0 0 Z " fill="#DFDEE6" transform="translate(308,695)"/>
<path d="M0 0 C0.99 0.33 1.98 0.66 3 1 C1.6875 3.9375 1.6875 3.9375 0 7 C-0.99 7.33 -1.98 7.66 -3 8 C-1.125 2.25 -1.125 2.25 0 0 Z " fill="#3A447A" transform="translate(255,675)"/>
<path d="M0 0 C0.66 0.99 1.32 1.98 2 3 C1.125 6.6875 1.125 6.6875 0 10 C-0.99 10 -1.98 10 -3 10 C-2.01 6.7 -1.02 3.4 0 0 Z " fill="#45C7B5" transform="translate(752,706)"/>
<path d="M0 0 C2.0625 0.4375 2.0625 0.4375 4 1 C2.1875 3 2.1875 3 0 5 C-0.99 5 -1.98 5 -3 5 C-1.125 1.125 -1.125 1.125 0 0 Z " fill="#37B8A1" transform="translate(656,693)"/>
<path d="M0 0 C0.99 0 1.98 0 3 0 C2.39816251 2.02045442 1.72693904 4.02111039 1 6 C0.01 6.495 0.01 6.495 -1 7 C-1.04254356 5.00045254 -1.04080783 2.99958364 -1 1 C-0.67 0.67 -0.34 0.34 0 0 Z " fill="#323E79" transform="translate(261,681)"/>
<path d="M0 0 C0.99 0.33 1.98 0.66 3 1 C-0.465 3.97 -0.465 3.97 -4 7 C-3.04065919 3.16263678 -2.76390737 2.40339772 0 0 Z " fill="#37B8A8" transform="translate(562,661)"/>
<path d="M0 0 C0.66 0.33 1.32 0.66 2 1 C0.515 3.475 0.515 3.475 -1 6 C-2.32 5.34 -3.64 4.68 -5 4 C-3.35 2.68 -1.7 1.36 0 0 Z " fill="#F1E8D6" transform="translate(545,420)"/>
<path d="M0 0 C1.32 0.33 2.64 0.66 4 1 C4.33 2.98 4.66 4.96 5 7 C3.29115995 5.37660195 1.62553283 3.70680947 0 2 C0 1.34 0 0.68 0 0 Z " fill="#FCE7B8" transform="translate(561,423)"/>
</svg>
