<svg width="120" height="120" viewBox="0 0 120 120" fill="none" xmlns="http://www.w3.org/2000/svg">
  <defs>
    <linearGradient id="grad1" x1="0%" y1="0%" x2="100%" y2="100%">
      <stop offset="0%" style="stop-color:#00B4D8;stop-opacity:1" />
      <stop offset="100%" style="stop-color:#06A77D;stop-opacity:1" />
    </linearGradient>
  </defs>
  
  <!-- Heart Shape -->
  <path d="M60 95 C 60 95, 25 70, 25 50 C 25 35, 35 25, 45 25 C 52 25, 57 30, 60 35 C 63 30, 68 25, 75 25 C 85 25, 95 35, 95 50 C 95 70, 60 95, 60 95 Z" fill="url(#grad1)" opacity="0.2"/>
  
  <!-- Medical Cross -->
  <rect x="55" y="35" width="10" height="35" rx="2" fill="url(#grad1)"/>
  <rect x="42.5" y="47.5" width="35" height="10" rx="2" fill="url(#grad1)"/>
  
  <!-- Pulse Line -->
  <path d="M 30 75 L 40 75 L 45 65 L 50 85 L 55 75 L 90 75" stroke="url(#grad1)" stroke-width="3" fill="none" stroke-linecap="round" stroke-linejoin="round"/>
</svg>
